HIERARCHY
ROOT Hips
{
	OFFSET 0.000000 0.000000 0.000000
	CHANNELS 6 Xposition Yposition Zposition Zrotation Yrotation Xrotation 
	JOINT LHipJoint
	{
		OFFSET 0.000000 0.000000 0.000000
		CHANNELS 3 Zrotation Yrotation Xrotation
		JOINT LeftUpLeg
		{
			OFFSET 1.363060 -1.794630 0.839290
			CHANNELS 3 Zrotation Yrotation Xrotation
			JOINT LeftLeg
			{
				OFFSET 2.448110 -6.726130 0.000000
				CHANNELS 3 Zrotation Yrotation Xrotation
				JOINT LeftFoot
				{
					OFFSET 2.562200 -7.039590 0.000000
					CHANNELS 3 Zrotation Yrotation Xrotation
					JOINT LeftToeBase
					{
						OFFSET 0.157640 -0.433110 2.322550
						CHANNELS 3 Zrotation Yrotation Xrotation
						End Site
						{
							OFFSET 0.000000 0.000000 0.000000
						}
					}
				}
			}
		}
	}
	JOINT RHipJoint
	{
		OFFSET 0.000000 0.000000 0.000000
		CHANNELS 3 Zrotation Yrotation Xrotation
		JOINT RightUpLeg
		{
			OFFSET -1.305520 -1.794630 0.839290
			CHANNELS 3 Zrotation Yrotation Xrotation
			JOINT RightLeg
			{
				OFFSET -2.542530 -6.985550 0.000000
				CHANNELS 3 Zrotation Yrotation Xrotation
				JOINT RightFoot
				{
					OFFSET -2.568260 -7.056230 0.000000
					CHANNELS 3 Zrotation Yrotation Xrotation
					JOINT RightToeBase
					{
						OFFSET -0.164730 -0.452590 2.363150
						CHANNELS 3 Zrotation Yrotation Xrotation
						End Site
						{
							OFFSET 0.000000 0.000000 0.000000
						}
					}
				}
			}
		}
	}
}
MOTION
Frames: 19
Frame Time: 0.008333
-5.668285 15.861445 -1.023568 -9.270445 70.603046 23.221607 -8.325754 -1.097738 0.113268 -12.184906 -0.427989 -73.774746 -2.227412 3.465834 40.218236 0.814653 2.874521 -0.851258 0.787199 -0.000000 -17.003500 10.895361 0.129055 -4.349600 8.053058 -5.525843 -33.075076 1.348765 -3.899051 57.482254 1.249326 14.645266 -11.269078 -1.166000 0.000001 -69.910300
-5.542031 15.862039 -1.016146 -9.414495 70.410971 22.960267 -8.325498 -1.108903 -0.001851 -12.267741 -0.200041 -73.666417 -2.186557 3.565690 41.466946 0.897741 3.091649 -2.233355 0.713100 0.000000 -17.688701 10.954788 0.106654 -4.329846 7.918463 -5.544755 -33.058534 1.161608 -3.945686 58.183655 1.221745 14.230183 -10.030057 -0.855800 0.000000 -70.908400
-5.417772 15.864558 -1.008964 -9.580564 70.201190 22.673747 -8.325731 -1.118294 -0.112698 -12.337512 0.037973 -73.454096 -2.157089 3.642260 42.527724 0.990912 3.353401 -3.610820 0.633300 0.000000 -18.546701 11.010240 0.087166 -4.318204 7.823393 -5.578362 -33.058837 0.975707 -3.990690 58.884083 1.179868 13.720847 -8.798511 -0.551500 0.000000 -71.733700
-5.295369 15.868429 -1.002150 -9.772747 69.967876 22.361088 -8.328234 -1.127641 -0.216479 -12.376804 0.280378 -73.163297 -2.132260 3.700190 43.432078 1.089502 3.645620 -4.913841 0.548900 0.000000 -19.429599 11.061962 0.071015 -4.312671 7.767469 -5.623042 -33.081022 0.789955 -4.033831 59.585743 1.124154 13.122100 -7.556105 -0.256400 0.000000 -72.436400
-5.174748 15.873176 -0.995644 -9.988000 69.709151 22.029117 -8.334132 -1.138389 -0.311725 -12.375783 0.521091 -72.821335 -2.106460 3.744489 44.216772 1.188518 3.953674 -6.091803 0.462600 0.000000 -20.204000 11.110282 0.058717 -4.311162 7.748053 -5.673949 -33.129442 0.604055 -4.074888 60.290288 1.055160 12.443679 -6.292088 0.024100 0.000000 -73.015300
-5.056029 15.878381 -0.989391 -10.219142 69.426597 21.688927 -8.343898 -1.151588 -0.397985 -12.331238 0.754296 -72.455426 -2.075654 3.780080 44.919513 1.283348 4.263538 -7.115559 0.378000 0.000000 -20.780200 11.155545 0.051102 -4.311848 7.761599 -5.726560 -33.210493 0.417586 -4.113821 61.000067 0.973037 11.692843 -4.993928 0.285600 -0.000000 -73.463899
-4.939326 15.883725 -0.983161 -10.457400 69.124545 21.353426 -8.357434 -1.167687 -0.475637 -12.246668 0.976034 -72.090555 -2.037766 3.811418 45.574952 1.370467 4.563145 -7.977770 0.298300 -0.000000 -21.126700 11.197998 0.048849 -4.313064 7.805179 -5.776705 -33.330773 0.230387 -4.150663 61.718335 0.877477 10.873349 -3.653034 0.522901 0.000000 -73.764600
-4.824877 15.888986 -0.976719 -10.692352 68.809977 21.035243 -8.373910 -1.186774 -0.546725 -12.132281 1.185861 -71.745106 -1.992964 3.842028 46.210182 1.447623 4.842202 -8.690898 0.225200 0.000001 -21.265000 11.237815 0.052502 -4.314054 7.875657 -5.821683 -33.494149 0.043321 -4.185633 62.447449 0.768026 9.986664 -2.273103 0.728400 0.000000 -73.874700
-4.712796 15.894007 -0.969823 -10.921519 68.488489 20.741697 -8.392810 -1.207964 -0.611518 -11.998941 1.386215 -71.437861 -1.942963 3.874709 46.844182 1.514219 5.093631 -9.282358 0.158600 0.000000 -21.255800 11.274381 0.062626 -4.313001 7.975373 -5.858285 -33.711456 -0.143831 -4.218592 63.193224 0.642718 9.019001 -0.850839 0.894600 0.000000 -73.783700
-4.603373 15.898763 -0.962286 -11.137606 68.169309 20.478472 -8.412400 -1.230991 -0.674791 -11.863988 1.584267 -71.170301 -1.891334 3.910690 47.484574 1.570566 5.311957 -9.791325 0.096300 -0.000000 -21.172200 11.307684 0.079149 -4.311128 8.101557 -5.886499 -33.978878 -0.327862 -4.250218 63.956524 0.501413 7.967586 0.575009 1.007100 0.000000 -73.403300
-4.496760 15.903167 -0.953926 -11.340990 67.858313 20.245139 -8.431565 -1.254853 -0.739183 -11.741963 1.788261 -70.943241 -1.842004 3.950474 48.130849 1.618118 5.495443 -10.259092 0.034999 -0.000000 -21.088800 11.337056 0.101793 -4.308877 8.256721 -5.906327 -34.297744 -0.506578 -4.281020 64.740780 0.343287 6.818189 1.967077 1.051900 0.000000 -72.681799
-4.393022 15.907221 -0.944728 -11.536521 67.559239 20.035964 -8.449655 -1.278418 -0.806437 -11.643173 2.007737 -70.753645 -1.798750 3.993963 48.776200 1.658877 5.645025 -10.723816 -0.028900 0.000000 -21.068000 11.361574 0.130013 -4.306803 8.444791 -5.918451 -34.668499 -0.677624 -4.311572 65.549728 0.168110 5.556532 3.274836 1.015200 -0.000000 -71.569400
-4.292232 15.910895 -0.934704 -11.728170 67.275011 19.843868 -8.465988 -1.300793 -0.879166 -11.576488 2.251682 -70.591076 -1.764875 4.040328 49.408703 1.694844 5.763556 -11.214893 -0.098300 0.000000 -21.154300 11.380720 0.162781 -4.306868 8.668466 -5.925945 -35.086422 -0.838312 -4.343049 66.385206 -0.023115 4.174513 4.433238 0.886099 0.000000 -70.010200
-4.194345 15.914168 -0.923965 -11.923651 67.005408 19.657914 -8.480540 -1.321078 -0.958439 -11.544778 2.527741 -70.445813 -1.742567 4.088664 50.015304 1.727712 5.854633 -11.749558 -0.175000 0.000000 -21.373000 11.393867 0.198832 -4.310733 8.931018 -5.931911 -35.546866 -0.986518 -4.376637 67.248039 -0.228434 2.671235 5.372717 0.661600 0.000001 -67.978100
-4.099221 15.916999 -0.912741 -12.128321 66.749446 19.469036 -8.493400 -1.338609 -1.045222 -11.548427 2.840560 -70.306493 -1.732951 4.137882 50.583352 1.758410 5.920988 -12.331949 -0.259200 0.000000 -21.726000 11.400843 0.236578 -4.320407 9.233927 -5.940130 -36.043237 -1.120535 -4.413864 68.136318 -0.444548 1.060343 6.023820 0.350400 -0.000001 -65.485200
-4.006750 15.919315 -0.901237 -12.348373 66.503696 19.267916 -8.505213 -1.352780 -1.139112 -11.582587 3.192596 -70.165535 -1.735725 4.187337 51.104558 1.787164 5.964726 -12.953462 -0.349600 0.000000 -22.195600 11.401529 0.274585 -4.337196 9.578171 -5.953625 -36.569990 -1.239659 -4.455906 69.046587 -0.667769 -0.633214 6.329806 -0.025200 0.000000 -62.559100
-3.916707 15.921072 -0.889682 -12.587303 66.264504 19.048814 -8.516638 -1.363259 -1.239263 -11.640569 3.582621 -70.018032 -1.749619 4.236590 51.574661 1.813373 5.986092 -13.597112 -0.443300 -0.000000 -22.741700 11.396113 0.311466 -4.362081 9.962889 -5.974801 -37.121663 -1.343451 -4.503771 69.972027 -0.893489 -2.367700 6.248982 -0.429400 -0.000000 -59.254400
-3.828930 15.922259 -0.878336 -12.846549 66.028050 18.808041 -8.528530 -1.369771 -1.344212 -11.714165 4.006932 -69.862494 -1.772341 4.285664 51.994955 1.835888 5.984838 -14.238991 -0.536500 0.000000 -23.318200 11.384915 0.346111 -4.395001 10.385115 -6.004183 -37.692522 -1.431775 -4.557766 70.902777 -1.116820 -4.090224 5.762988 -0.817400 0.000001 -55.645100
-3.743262 15.922856 -0.867340 -13.122811 65.791151 18.547984 -8.541412 -1.372380 -1.452443 -11.795065 4.458346 -69.699893 -1.801055 4.334746 52.371065 1.853397 5.960811 -14.854513 -0.625000 0.000000 -23.879200 11.368558 0.377969 -4.435550 10.839716 -6.041771 -38.278914 -1.504297 -4.617878 71.826633 -1.332395 -5.739356 4.878209 -1.141900 -0.000000 -51.819299
